<svg xmlns="http://www.w3.org/2000/svg" viewBox="0 0 179.4 318.3"><defs><style>.cls-1{fill:#fff;}</style></defs><g id="Layer_2" data-name="Layer 2"><g id="Layer_2-2" data-name="Layer 2"><path class="cls-1" d="M0,35.76S31.48,91.5,34.58,104.41s17.55,24.25,23.23,27.35,20.13,18.58,16,29.42c0,0-7.23,15.48-6.2,37.16,0,0-11.35-16-12.38-27.87,0,0-10.33,6.19,14.45,54.19,0,0,4.13,34.58,26.32,93.42,0,0,5.16,3.1,0-13.93s-24.26-118.71,11.87-145c5.82-12.91,57.81-77.94,67.1-102.2s.51-5.16-41.29,36.13c0,0,36.14-64,44.65-83.1s-35.88,48.52-57.56,80.52c0,0,21.17-45.42,18.07-57.81,0,0-10.84,39.75-42.84,64.52,0,0-10.32,12.39,3.61,9.81,0,0,5.68,7.22-13.42,23.22,0,0-.51-24.77,11.36-49S145,13.05,145,13.05s11.36-27.87-59.35,55.23c0,0-19.83,28.56,4,20.13,0,0-10.22,34.06-11.76,45.41,0,0,1.54-68.12-5.68-71.74,0,0-11.87-35.67-13.94-55s-5.16,3.39-5.16,38c0,0-8.26-37.16-14.45-41.29s4.64,32.52,10.84,59.87,3.61,37.68-7.74,13.42S0,35.76,0,35.76Z"/></g></g></svg>